<?xml version="1.0" encoding="UTF-8"?> <svg class="css-1j8o68f" viewBox="0 0 297.55 93.506" xmlns="http://www.w3.org/2000/svg"> <g transform="matrix(11.098 0 0 11.098 205 0)" fill="#444f5a" featurekey="ggLddZ-0"> <g xmlns="http://www.w3.org/2000/svg"> <path class="fil0" d="m8.3392 3.5517v4.8734h-8.3392v-8.4251h4.3682v0.1992h-4.1689v8.0267h7.9406v-4.6742h0.1993zm-5.6062 1.9992c0.7003-1.5461 2.1502-3.8418 4.7687-3.9106-3.0034 1.487-3.7138 2.6873-4.6888 5.1445l-1.9754-2.2482 1.8955 1.0143z" fill="#58a973"/> </g> </g> <g transform="matrix(3.9382 0 0 3.9382 -.96136 -11.344)" fill="#444f5a" featurekey="nN0dxP-0"> <path d="m3.5645 17.441c0.13021-0.16276 0.30271-0.34016 0.51755-0.53222s0.46224-0.37109 0.74219-0.53711 0.5957-0.30599 0.94727-0.41992 0.73567-0.1709 1.1523-0.1709c0.42317 0 0.78125 0.022783 1.0742 0.068359s0.55989 0.092773 0.80078 0.1416 0.46875 0.096025 0.68359 0.1416 0.45247 0.068359 0.71289 0.068359c0.49479 0 0.88217-0.10742 1.1621-0.32227s0.41992-0.61523 0.41992-1.2012h1.9238c0 1.2435-0.11719 2.2314-0.35156 2.9639s-0.55501 1.2891-0.96191 1.6699-0.8903 0.62337-1.4502 0.72754-1.1589 0.15625-1.7969 0.15625c-0.50781 0-0.99775-0.048828-1.4697-0.14648s-0.92447-0.20345-1.3574-0.31738-0.84635-0.22136-1.2402-0.32227-0.76334-0.15137-1.1084-0.15137c-0.29948 0-0.53549 0.040693-0.70802 0.12207s-0.31088 0.16764-0.41505 0.25878c-0.1237 0.11067-0.21811 0.23111-0.28321 0.36132h-2.2363c0-0.97656 0.10905-1.8213 0.32715-2.5342s0.50781-1.3347 0.86914-1.8652 0.77474-0.98633 1.2402-1.3672 0.93913-0.71452 1.4209-1.001 0.9554-0.54361 1.4209-0.77147 0.87891-0.46224 1.2402-0.70313 0.65104-0.50131 0.86914-0.78126 0.32715-0.61198 0.32715-0.99609c0-0.57292-0.22298-0.99932-0.66895-1.2793s-0.98145-0.41992-1.6064-0.41992c-0.44271 0-0.83984 0.032549-1.1914 0.097656s-0.68685 0.17904-1.0059 0.34181c0.39714 0.11719 0.74219 0.30599 1.0352 0.56641s0.43945 0.64453 0.43945 1.1523c0 0.22786-0.050459 0.44759-0.15137 0.65918s-0.24739 0.40527-0.43945 0.58105-0.43457 0.3125-0.72754 0.41016-0.625 0.14648-0.99609 0.14648c-0.27995 0-0.56804-0.045576-0.86426-0.13672s-0.56314-0.23763-0.80077-0.43945-0.43294-0.4655-0.58594-0.79102-0.22949-0.72266-0.22949-1.1914c0-0.625 0.16602-1.1979 0.49805-1.7188s0.79753-0.97168 1.3965-1.3525 1.3184-0.67383 2.1582-0.87891 1.761-0.30762 2.7637-0.30762c1.0677 0 2.0085 0.11394 2.8223 0.3418s1.4974 0.54199 2.0508 0.94238 0.97006 0.86589 1.25 1.3965 0.41992 1.0986 0.41992 1.7041c0 0.72917-0.11719 1.3379-0.35156 1.8262s-0.55176 0.89192-0.95215 1.2109-0.86101 0.58105-1.3818 0.78613-1.0677 0.38574-1.6406 0.54199-1.1523 0.31087-1.7383 0.46387-1.1426 0.34506-1.6699 0.57618-1.0075 0.51758-1.4404 0.85938-0.77637 0.77962-1.0303 1.3135zm19.316-1.0644c0.35808 0 0.70802-0.039063 1.0498-0.11719s0.64128-0.24089 0.89844-0.48828 0.46712-0.60384 0.62988-1.0693 0.24414-1.0921 0.24414-1.8799c0-0.77474-0.078125-1.3981-0.23438-1.8701s-0.3597-0.83496-0.61035-1.0889-0.55014-0.42155-0.89845-0.50293-0.70801-0.12207-1.0791-0.12207h-0.91797v7.1387h0.91797zm-8.2812 3.623 1.9073e-5 -3.623c0.57292 0 0.98311-0.076494 1.2305-0.22949s0.37109-0.44108 0.37109-0.86426v-4.9414c0-0.42969-0.1237-0.72103-0.37109-0.87402s-0.65755-0.22949-1.2305-0.22949v-3.623h10.361c0.93099 0 1.8327 0.1237 2.7051 0.37109s1.6487 0.65104 2.3291 1.2109 1.2272 1.3005 1.6406 2.2217 0.62012 2.0557 0.62012 3.4033-0.20345 2.4805-0.61035 3.3984-0.96029 1.6569-1.6602 2.2168-1.5186 0.96354-2.4561 1.2109-1.9336 0.37109-2.9883 0.37109zm18.564-5.4004c0-0.95703 0.16602-1.7969 0.49805-2.5195s0.80566-1.3265 1.4209-1.8115 1.3558-0.85124 2.2217-1.0986 1.8327-0.37109 2.9004-0.37109 2.0345 0.1237 2.9004 0.37109 1.6048 0.6136 2.2168 1.0986 1.0856 1.0889 1.4209 1.8115 0.50293 1.5625 0.50293 2.5195c0 0.94401-0.16765 1.7806-0.50293 2.5098s-0.80892 1.3396-1.4209 1.8311-1.3509 0.861-2.2168 1.1084-1.8327 0.37109-2.9004 0.37109-2.0345-0.1237-2.9004-0.37109-1.6064-0.61686-2.2217-1.1084-1.0889-1.1019-1.4209-1.8311-0.49805-1.5657-0.49805-2.5098zm5.5566 0c0 0.54688 0.024404 1.0107 0.073232 1.3916s0.12858 0.68685 0.23926 0.91797 0.26041 0.40039 0.44921 0.50781 0.42969 0.16113 0.72266 0.16113 0.53223-0.053711 0.71777-0.16113 0.33528-0.27669 0.44922-0.50781 0.19369-0.53711 0.23927-0.91797 0.068359-0.84473 0.068359-1.3916c0-1.0938-0.10254-1.8604-0.30762-2.2998s-0.59407-0.65918-1.167-0.65918c-0.29297 0-0.53386 0.050459-0.72266 0.15137s-0.33854 0.26692-0.44921 0.49805-0.19043 0.53711-0.23926 0.91797-0.073242 0.84473-0.073242 1.3916z" fill="#f96060"/> </g> <g transform="matrix(.33473 0 0 .33473 14.96 77.534)" fill="#444f5a" featurekey="IfqRl1-0"> <path d="m11.08 5.84-4.54 8.12v5.46c0 0.24-0.08666 0.44666-0.26 0.62s-0.38 0.26-0.62 0.26-0.44666-0.08666-0.62-0.26-0.26-0.38-0.26-0.62v-5.46l-4.54-8.12c-0.08-0.13334-0.12-0.28-0.12-0.44 0-0.24 0.08666-0.44666 0.26-0.62s0.38-0.26 0.62-0.26c0.16 0 0.31 0.04 0.45 0.12s0.25 0.18666 0.33 0.32l3.88 6.94 3.88-6.94c0.08-0.13334 0.19-0.24 0.33-0.32s0.29-0.12 0.45-0.12c0.24 0 0.44666 0.08666 0.62 0.26s0.26 0.38 0.26 0.62c0 0.16-0.04 0.30666-0.12 0.44zm23.296 14.46c-1.0933 0-2.12-0.20666-3.08-0.62s-1.7967-0.97668-2.51-1.69-1.2767-1.55-1.69-2.51-0.62-1.9867-0.62-3.08c0-1.08 0.20666-2.1 0.62-3.06s0.97668-1.7967 1.69-2.51 1.55-1.2767 2.51-1.69 1.9867-0.62 3.08-0.62c1.08 0 2.1 0.20666 3.06 0.62s1.7967 0.97668 2.51 1.69 1.2767 1.55 1.69 2.51 0.62 1.98 0.62 3.06c0 1.0933-0.20666 2.12-0.62 3.08s-0.97668 1.7967-1.69 2.51-1.55 1.2767-2.51 1.69-1.98 0.62-3.06 0.62zm0-14.02c-0.84 0-1.6333 0.16-2.38 0.48s-1.4 0.75666-1.96 1.31-1 1.2033-1.32 1.95-0.48 1.54-0.48 2.38 0.16 1.6333 0.48 2.38 0.76 1.4 1.32 1.96 1.2133 1 1.96 1.32 1.54 0.48 2.38 0.48 1.6333-0.16 2.38-0.48 1.3967-0.76 1.95-1.32 0.99-1.2133 1.31-1.96 0.48-1.54 0.48-2.38-0.16-1.6333-0.48-2.38-0.75666-1.3967-1.31-1.95-1.2033-0.99-1.95-1.31-1.54-0.48-2.38-0.48zm31.996 14.02c-0.84 0-1.6266-0.16004-2.36-0.48004s-1.3767-0.75334-1.93-1.3-0.99-1.19-1.31-1.93-0.48-1.53-0.48-2.37v-8.82c0-0.24 0.08666-0.44666 0.26-0.62s0.38668-0.26 0.64002-0.26c0.24 0 0.44666 0.08666 0.62 0.26s0.26 0.38 0.26 0.62v8.82c0 0.6 0.11334 1.16 0.34 1.68s0.53332 0.97334 0.91998 1.36 0.84332 0.69332 1.37 0.91998 1.0833 0.34 1.67 0.34c0.6 0 1.16-0.11334 1.68-0.34s0.97666-0.53332 1.37-0.91998 0.70334-0.84332 0.93-1.37 0.34-1.0833 0.34-1.67v-8.82c0-0.24 0.08666-0.44666 0.26-0.62s0.38-0.26 0.62-0.26c0.25334 0 0.46668 0.08666 0.64002 0.26s0.26 0.38 0.26 0.62v8.82c0 0.84-0.16 1.63-0.48 2.37s-0.75666 1.3833-1.31 1.93-1.2 0.98-1.94 1.3-1.53 0.48-2.37 0.48zm28.976-6.94-0.24-3.9062e-5 0.26-0.46 3.62 6.06c0.08 0.14666 0.12 0.3 0.12 0.46 0 0.24-0.08666 0.44666-0.26 0.62s-0.38 0.26-0.62 0.26c-0.16 0-0.31-0.04-0.45-0.12s-0.25-0.18666-0.33-0.32l-3.88-6.5h-0.86v6.06c0 0.24-0.08666 0.44666-0.26 0.62s-0.38 0.26-0.62 0.26c-0.25334 0-0.46668-0.08666-0.64002-0.26s-0.26-0.38-0.26-0.62v-14.02c0-0.24 0.08666-0.44666 0.26-0.62s0.38668-0.26 0.64002-0.26h3.52c0.61334 0 1.19 0.11666 1.73 0.35s1.01 0.55 1.41 0.95 0.71666 0.86666 0.95 1.4 0.35 1.1067 0.35 1.72-0.11666 1.1867-0.35 1.72-0.55 1-0.95 1.4-0.87 0.71666-1.41 0.95-1.1167 0.35-1.73 0.35zm0-7.08h-2.64v5.3h2.64c0.36 0 0.70334-0.07 1.03-0.21s0.61-0.33 0.85-0.57 0.43-0.52 0.57-0.84 0.21-0.66 0.21-1.02-0.07-0.70334-0.21-1.03-0.33-0.61-0.57-0.85-0.52334-0.43-0.85-0.57-0.67-0.21-1.03-0.21zm49.532 14.02-4.92-3.9062e-5c-0.16 0-0.31334-0.04666-0.46-0.14s-0.25332-0.21334-0.31998-0.36c-0.12-0.21334-0.13334-0.45334-0.04-0.72v-13.68c0-0.24 0.08666-0.44666 0.26-0.62s0.38668-0.26 0.64002-0.26h4.82c1.0533 0 2.0134 0.22666 2.88 0.68s1.6067 1.0467 2.22 1.78 1.0867 1.5667 1.42 2.5 0.5 1.88 0.5 2.84c0 1.1867-0.20334 2.27-0.61 3.25s-0.94 1.82-1.6 2.52-1.41 1.2433-2.25 1.63-1.6867 0.58-2.54 0.58zm-0.02-14.02-3.94-7.8126e-5v12.26h3.96c0.76 0 1.4567-0.18334 2.09-0.55s1.1833-0.84332 1.65-1.43 0.83-1.2533 1.09-2 0.39-1.4933 0.39-2.24c0-0.76-0.12666-1.5033-0.38-2.23s-0.61-1.3733-1.07-1.94-1.0133-1.02-1.66-1.36-1.3567-0.51-2.13-0.51zm36.996 13.94c-0.10666 0.05334-0.21992 0.08-0.33992 0.08-0.17334 0-0.33668-0.04666-0.49002-0.14s-0.26334-0.22668-0.33-0.40002l-1.58-3.72h-7.26l-1.58 3.72c-0.09334 0.22666-0.25334 0.38666-0.48 0.48s-0.45332 0.08668-0.67998-0.01998c-0.22666-0.09334-0.38666-0.25334-0.48-0.48s-0.08668-0.45332 0.01998-0.67998l1.8-4.26 4.22-9.88c0.06666-0.17334 0.17332-0.30668 0.31998-0.40002s0.31332-0.14 0.49998-0.14c0.17334 0 0.33334 0.04666 0.48 0.14s0.25332 0.22668 0.31998 0.40002c1.0133 2.3734 2.02 4.73 3.02 7.07s2.0066 4.6966 3.02 7.07c0.09334 0.22666 0.09334 0.45332 0 0.67998s-0.25334 0.38666-0.48 0.48zm-6.36-12.68-2.88 6.72h5.74zm24.936 12.76c-0.25334 0-0.46668-0.08666-0.64002-0.26s-0.26-0.38-0.26-0.62v-14.02c0-0.24 0.08666-0.44666 0.26-0.62s0.38668-0.26 0.64002-0.26c0.24 0 0.44666 0.08666 0.62 0.26s0.26 0.38 0.26 0.62v14.02c0 0.24-0.08666 0.44666-0.26 0.62s-0.38 0.26-0.62 0.26zm25.556 0h-5.34c-0.24 0-0.44666-0.08666-0.62-0.26s-0.26-0.38-0.26-0.62v-14.02c0-0.25334 0.08666-0.46334 0.26-0.63s0.38-0.25 0.62-0.25c0.25334 0 0.46334 0.08334 0.63 0.25s0.25 0.37666 0.25 0.63v13.14h4.46c0.25334 0 0.46668 0.08666 0.64002 0.26s0.26 0.38 0.26 0.62-0.08666 0.44666-0.26 0.62-0.38668 0.26-0.64002 0.26zm27.016-14.46-4.54 8.12v5.46c0 0.24-0.08666 0.44666-0.26 0.62s-0.38 0.26-0.62 0.26-0.44666-0.08666-0.62-0.26-0.26-0.38-0.26-0.62v-5.46l-4.54-8.12c-0.08-0.13334-0.12-0.28-0.12-0.44 0-0.24 0.08666-0.44666 0.26-0.62s0.38-0.26 0.62-0.26c0.16 0 0.31 0.04 0.45 0.12s0.25 0.18666 0.33 0.32l3.88 6.94 3.88-6.94c0.08-0.13334 0.19-0.24 0.33-0.32s0.29-0.12 0.45-0.12c0.24 0 0.44666 0.08666 0.62 0.26s0.26 0.38 0.26 0.62c0 0.16-0.04 0.30666-0.12 0.44zm43.612 7.52-2.64-3.9062e-5v6.06c0 0.24-0.08666 0.44666-0.26 0.62s-0.38 0.26-0.62 0.26c-0.25334 0-0.46668-0.08666-0.64002-0.26s-0.26-0.38-0.26-0.62v-14.02c0-0.24 0.08666-0.44666 0.26-0.62s0.38668-0.26 0.64002-0.26h3.52c0.61334 0 1.19 0.11666 1.73 0.35s1.01 0.55 1.41 0.95 0.71666 0.86666 0.95 1.4 0.35 1.1067 0.35 1.72-0.11666 1.1867-0.35 1.72-0.55 1-0.95 1.4-0.87 0.71666-1.41 0.95-1.1167 0.35-1.73 0.35zm0-7.08h-2.64v5.3h2.64c0.36 0 0.70334-0.07 1.03-0.21s0.61-0.33 0.85-0.57 0.43-0.52 0.57-0.84 0.21-0.66 0.21-1.02-0.07-0.70334-0.21-1.03-0.33-0.61-0.57-0.85-0.52334-0.43-0.85-0.57-0.67-0.21-1.03-0.21zm27.796 14.02h-5.34c-0.24 0-0.44666-0.08666-0.62-0.26s-0.26-0.38-0.26-0.62v-14.02c0-0.25334 0.08666-0.46334 0.26-0.63s0.38-0.25 0.62-0.25c0.25334 0 0.46334 0.08334 0.63 0.25s0.25 0.37666 0.25 0.63v13.14h4.46c0.25334 0 0.46668 0.08666 0.64002 0.26s0.26 0.38 0.26 0.62-0.08666 0.44666-0.26 0.62-0.38668 0.26-0.64002 0.26zm29.556-0.08c-0.10666 0.05334-0.21992 0.08-0.33992 0.08-0.17334 0-0.33668-0.04666-0.49002-0.14s-0.26334-0.22668-0.33-0.40002l-1.58-3.72h-7.26l-1.58 3.72c-0.09334 0.22666-0.25334 0.38666-0.48 0.48s-0.45332 0.08668-0.67998-0.01998c-0.22666-0.09334-0.38666-0.25334-0.48-0.48s-0.08668-0.45332 0.01998-0.67998l1.8-4.26 4.22-9.88c0.06666-0.17334 0.17332-0.30668 0.31998-0.40002s0.31332-0.14 0.49998-0.14c0.17334 0 0.33334 0.04666 0.48 0.14s0.25332 0.22668 0.31998 0.40002c1.0133 2.3734 2.02 4.73 3.02 7.07s2.0066 4.6966 3.02 7.07c0.09334 0.22666 0.09334 0.45332 0 0.67998s-0.25334 0.38666-0.48 0.48zm-6.36-12.68-2.88 6.72h5.74zm33.776 12.76c-0.33334 0-0.58668-0.14-0.76002-0.42l-7.22-11.44v10.98c0 0.24-0.08334 0.44666-0.25 0.62s-0.37666 0.26-0.63 0.26c-0.24 0-0.44666-0.08666-0.62-0.26s-0.26-0.38-0.26-0.62v-14.02c0-0.24 0.08666-0.44666 0.26-0.62s0.38-0.26 0.62-0.26c0.33334 0 0.58668 0.13334 0.76002 0.4l7.22 11.44v-10.96c0-0.24 0.08334-0.44666 0.25-0.62s0.37666-0.26 0.63-0.26c0.24 0 0.44666 0.08666 0.62 0.26s0.26 0.38 0.26 0.62v14.02c0 0.24-0.08666 0.44666-0.26 0.62s-0.38 0.26-0.62 0.26zm29.076 0c-0.33334 0-0.58668-0.14-0.76002-0.42l-7.22-11.44v10.98c0 0.24-0.08334 0.44666-0.25 0.62s-0.37666 0.26-0.63 0.26c-0.24 0-0.44666-0.08666-0.62-0.26s-0.26-0.38-0.26-0.62v-14.02c0-0.24 0.08666-0.44666 0.26-0.62s0.38-0.26 0.62-0.26c0.33334 0 0.58668 0.13334 0.76002 0.4l7.22 11.44v-10.96c0-0.24 0.08334-0.44666 0.25-0.62s0.37666-0.26 0.63-0.26c0.24 0 0.44666 0.08666 0.62 0.26s0.26 0.38 0.26 0.62v14.02c0 0.24-0.08666 0.44666-0.26 0.62s-0.38 0.26-0.62 0.26zm27.116 0-6.88-1.9531e-5c-0.25334 0-0.46668-0.08666-0.64002-0.26s-0.26-0.38-0.26-0.62v-0.04-0.04-13.94c0-0.24 0.08666-0.44666 0.26-0.62s0.38668-0.26 0.64002-0.26h6.88c0.25334 0 0.46668 0.08666 0.64002 0.26s0.26 0.38 0.26 0.62c0 0.25334-0.08666 0.46334-0.26 0.63s-0.38668 0.25-0.64002 0.25h-6v5.1h5.06c0.24 0 0.44666 0.08334 0.62 0.25s0.26 0.37666 0.26 0.63c0 0.24-0.08666 0.44666-0.26 0.62s-0.38 0.26-0.62 0.26h-5.06v5.38h6c0.25334 0 0.46668 0.08666 0.64002 0.26s0.26 0.38668 0.26 0.64002c0 0.24-0.08666 0.44666-0.26 0.62s-0.38668 0.26-0.64002 0.26zm22.616-6.94-0.24-3.9062e-5 0.26-0.46 3.62 6.06c0.08 0.14666 0.12 0.3 0.12 0.46 0 0.24-0.08666 0.44666-0.26 0.62s-0.38 0.26-0.62 0.26c-0.16 0-0.31-0.04-0.45-0.12s-0.25-0.18666-0.33-0.32l-3.88-6.5h-0.86v6.06c0 0.24-0.08666 0.44666-0.26 0.62s-0.38 0.26-0.62 0.26c-0.25334 0-0.46668-0.08666-0.64002-0.26s-0.26-0.38-0.26-0.62v-14.02c0-0.24 0.08666-0.44666 0.26-0.62s0.38668-0.26 0.64002-0.26h3.52c0.61334 0 1.19 0.11666 1.73 0.35s1.01 0.55 1.41 0.95 0.71666 0.86666 0.95 1.4 0.35 1.1067 0.35 1.72-0.11666 1.1867-0.35 1.72-0.55 1-0.95 1.4-0.87 0.71666-1.41 0.95-1.1167 0.35-1.73 0.35zm0-7.08h-2.64v5.3h2.64c0.36 0 0.70334-0.07 1.03-0.21s0.61-0.33 0.85-0.57 0.43-0.52 0.57-0.84 0.21-0.66 0.21-1.02-0.07-0.70334-0.21-1.03-0.33-0.61-0.57-0.85-0.52334-0.43-0.85-0.57-0.67-0.21-1.03-0.21z" fill="#f96060"/> </g> </svg>