<svg xmlns="http://www.w3.org/2000/svg" viewBox="0 0 216.32 196.4"><defs><style>.cls-1,.cls-11{fill:#ebebeb;}.cls-1{opacity:0.5;}.cls-1,.cls-10,.cls-4,.cls-9{isolation:isolate;}.cls-2{fill:#e0e0e0;}.cls-3{fill:#0dafc4;}.cls-4{opacity:0.1;}.cls-10,.cls-5{fill:#fff;}.cls-6{fill:#f0f0f0;}.cls-7{fill:#e6e6e6;}.cls-8{fill:#fafafa;}.cls-9{opacity:0.2;}.cls-10{opacity:0.4;}.cls-12{fill:#f5f5f5;}.cls-13{fill:#455a64;}.cls-14{fill:#37474f;}.cls-15{fill:#ffa8a7;}.cls-16{fill:#263238;}.cls-17{fill:#f28f8f;}</style></defs><title>Asset 1</title><g id="Layer_2" data-name="Layer 2"><g id="Layer_1-2" data-name="Layer 1"><g id="freepik--Floor--inject-32"><path id="freepik--SUELO--inject-32" class="cls-1" d="M40.33,182c40.26,19.19,105.54,19.19,145.8,0s40.25-50.29,0-69.49-105.54-19.19-145.8,0S.08,162.82,40.33,182Z"/></g><g id="freepik--Shadows--inject-32"><ellipse id="freepik--Shadow--inject-32" class="cls-2" cx="170.8" cy="132.85" rx="27.82" ry="13.26"/><path id="freepik--shadow--inject-32-2" data-name="freepik--shadow--inject-32" class="cls-2" d="M128.73,185.64c-7.43,3.54-19.48,3.54-26.92,0s-7.43-9.29,0-12.83,19.49-3.52,26.92,0S136.18,182.1,128.73,185.64Z"/></g><g id="freepik--Plants--inject-32"><g id="freepik--plants--inject-32-2" data-name="freepik--plants--inject-32"><path class="cls-3" d="M28.77,140.4,32.86,138A50.71,50.71,0,0,0,31.8,116.2C28.59,104,19.32,94.84,14.48,96.76s-4.7,5.53-2,9.2c2.22,3,9.39,10.35,12.84,18.81A46.47,46.47,0,0,1,28.77,140.4Z"/><path class="cls-4" d="M28.77,140.4,32.86,138A50.71,50.71,0,0,0,31.8,116.2C28.59,104,19.32,94.84,14.48,96.76s-4.7,5.53-2,9.2c2.22,3,9.39,10.35,12.84,18.81A46.47,46.47,0,0,1,28.77,140.4Z"/><path class="cls-5" d="M30.94,139.39h0a.24.24,0,0,1-.21-.28C33.49,119,21,102.73,15.35,99.34a.25.25,0,0,1-.13-.33.24.24,0,0,1,.33-.13s0,0,.06,0c5.75,3.44,18.41,19.92,15.59,40.27A.27.27,0,0,1,30.94,139.39Z"/><path class="cls-3" d="M28.77,140.4l-6.13,3.52a11.67,11.67,0,0,0-4.09-1.18c-2.6-.33-4.34-2.84-4.08-4.72a14.53,14.53,0,0,0,.38-4,3.71,3.71,0,0,0-2.32-2.58,8.65,8.65,0,0,0-2.72-.39,8.8,8.8,0,0,1-4.26-1,3.55,3.55,0,0,1-1.76-3.73,5,5,0,0,1,1.29-1.94,6.2,6.2,0,0,0,1.36-1.89c.54-1.42-.42-2.32-1.56-3-4-2.32-5.83-4.14-4.39-5.89s5.43-2.52,9.51-.37,7.46-.16,10.15.29c4.22.71,4.46,3.68,3.94,6.27s4.69,3.69,6,6.79C31,128.86,31.84,136.26,28.77,140.4Z"/><path class="cls-5" d="M26.72,141.83a.26.26,0,0,1-.25-.25C26,127.23,7.57,114.71,3.23,114A.25.25,0,0,1,3,113.7H3a.25.25,0,0,1,.29-.21c4.57.76,23.16,13.18,23.67,28.07a.27.27,0,0,1-.24.27h0Z"/><path class="cls-3" d="M105.64,167.76c-.2-2.52-2.15-6.81-5-9.87s-7.48-4.52-10.31-3.3c-2.64,1.15-2.06,4.69,1.43,6.79S100.4,166,102.18,170l3.44,4.76Z"/><path class="cls-4" d="M105.64,167.76c-.2-2.52-2.15-6.81-5-9.87s-7.48-4.52-10.31-3.3c-2.64,1.15-2.06,4.69,1.43,6.79S100.4,166,102.18,170l3.44,4.76Z"/><path class="cls-5" d="M105.64,172.37h0A.36.36,0,0,0,106,172h0c-1.25-9.32-10.72-15.8-14.49-16.52a.35.35,0,0,0-.4.27h0a.34.34,0,0,0,.27.4h0c3.52.67,12.74,7.08,13.93,15.93A.36.36,0,0,0,105.64,172.37Z"/><path class="cls-3" d="M105.26,178.17c-.5-1.38-2.43-3.58-5.38-5.28-3.27-1.89-7.25-2.56-8.29-4.14-1.24-1.91.29-3.93,3.49-3.79s9.14,4,10.56,10.47Z"/><path class="cls-5" d="M105.51,176.81h.06a.33.33,0,0,0,.27-.4h0c-1-4.77-7.87-9.72-12.35-9.93a.36.36,0,0,0-.36.33.35.35,0,0,0,.33.36c4.16.19,10.83,5,11.71,9.38A.34.34,0,0,0,105.51,176.81Z"/></g></g><g id="freepik--Calendar--inject-32"><g id="freepik--calendar--inject-32-2" data-name="freepik--calendar--inject-32"><path class="cls-6" d="M24.37,144.12a1.74,1.74,0,0,1-.74-1.81L41.46,63.39a3.24,3.24,0,0,1,1.36-1.86L148.93.28a2.31,2.31,0,0,1,2.11,0,1.75,1.75,0,0,1,.73,1.8L133.93,81a3.24,3.24,0,0,1-1.36,1.86L26.48,144.08A2.31,2.31,0,0,1,24.37,144.12Z"/><path class="cls-7" d="M43.5,64.55l-17.83,79c-.15.67.21.94.81.59L132.59,82.85A3.27,3.27,0,0,0,134,81L151.77,2.05c.15-.68-.21-.94-.81-.6L44.85,62.7A3.27,3.27,0,0,0,43.5,64.55Z"/><path class="cls-6" d="M153.06,1.41a2.34,2.34,0,0,0-2.11,0L44.84,62.7a2,2,0,0,0-.91,1.87l14,97.76a2.81,2.81,0,0,0,1.2,1.83,2.28,2.28,0,0,0,2.11,0l106.08-61.23a2,2,0,0,0,.91-1.88L154.28,3.25A2.82,2.82,0,0,0,153.06,1.41Z"/><path class="cls-8" d="M46,65.76l13.94,97.75a.78.78,0,0,0,.8.77.81.81,0,0,0,.47-.16l106.08-61.23a2,2,0,0,0,.91-1.88L154.28,3.25A.79.79,0,0,0,153,2.63L46.91,63.88A2,2,0,0,0,46,65.76Z"/><path class="cls-2" d="M25.76,143.06l27.16-15.68.79,5.68-12.45,7.19s-3.32,1.18-4.64,1.51S25.76,143.06,25.76,143.06Z"/><polygon class="cls-7" points="53.72 133.06 57.8 161.63 41.27 140.26 53.72 133.06"/><path class="cls-2" d="M57.31,162.58,42.5,143.34a2.4,2.4,0,0,0-2-.82l-13.85,2a4.06,4.06,0,0,1-2.27-.42c-.56-.32-.47-.69.21-.82l15.92-3.06a2.15,2.15,0,0,1,2,.77l16.86,22.73c.41.55.29.74-.27.41A7.25,7.25,0,0,1,57.31,162.58Z"/><path class="cls-3" d="M151.8,1.66A1.73,1.73,0,0,0,151,.24a2.31,2.31,0,0,0-2.11,0L42.8,61.53a3,3,0,0,0-.83.77,3.13,3.13,0,0,0-.54,1.08L38.92,74.53l2,1.17,108.3-62.51,2.51-11.14a2.56,2.56,0,0,0,0-.39Z"/><path class="cls-9" d="M151.77,2.05c.15-.68-.21-.94-.81-.6L44.85,62.7a3.29,3.29,0,0,0-1.36,1.85L41,75.7,149.26,13.19Z"/><path class="cls-4" d="M44,63.48a2.9,2.9,0,0,0-.53,1.07L41,75.7l-2.05-1.17,2.52-11.15A3,3,0,0,1,42,62.3Z"/><path class="cls-10" d="M151.8,1.66c-.05-.38-.38-.5-.85-.21L44.84,62.7a2.93,2.93,0,0,0-.83.78L42,62.3a3.08,3.08,0,0,1,.83-.78L148.91.27a2.34,2.34,0,0,1,2.11,0A1.75,1.75,0,0,1,151.8,1.66Z"/><path class="cls-3" d="M154.39,4.18h0l-.11-.93a.35.35,0,0,0,0-.14s0,0,0,0h0a2.85,2.85,0,0,0-1.16-1.66,2.34,2.34,0,0,0-2.11,0L44.87,62.7a1.92,1.92,0,0,0-.73.84h0a1.93,1.93,0,0,0-.18,1l2,14,2,1.18,108.24-62.5Z"/><path class="cls-4" d="M48,79.76l-2-1.19-2-14a2,2,0,0,1,.18-1l2.05,1.18a1.86,1.86,0,0,0-.18,1Z"/><path class="cls-10" d="M154.22,3.07a.76.76,0,0,0-.92-.58.69.69,0,0,0-.3.14L46.89,63.88a1.89,1.89,0,0,0-.73.83l-2-1.17a1.92,1.92,0,0,1,.73-.84L151,1.45a2.34,2.34,0,0,1,2.11,0A2.77,2.77,0,0,1,154.22,3.07Z"/><path class="cls-3" d="M76.16,147.31l-1.26-8.9a.65.65,0,0,0-.65-.63.67.67,0,0,0-.36.12l-9.25,5.34a1.6,1.6,0,0,0-.73,1.51l1.26,8.93a.63.63,0,0,0,.63.63.65.65,0,0,0,.38-.13l9.25-5.34A1.59,1.59,0,0,0,76.16,147.31Z"/><path class="cls-11" d="M90.46,139.06l-1.27-8.9a.63.63,0,0,0-1-.5L78.94,135a1.6,1.6,0,0,0-.73,1.51l1.27,8.9a.63.63,0,0,0,.63.63.58.58,0,0,0,.38-.13l9.25-5.34A1.58,1.58,0,0,0,90.46,139.06Z"/><path class="cls-11" d="M104.77,130.82l-1.28-8.9a.63.63,0,0,0-.62-.63.64.64,0,0,0-.38.12l-9.25,5.35a1.6,1.6,0,0,0-.73,1.51l1.27,8.9a.63.63,0,0,0,.63.63.61.61,0,0,0,.37-.12l9.25-5.34A1.61,1.61,0,0,0,104.77,130.82Z"/><path class="cls-11" d="M119.08,122.58l-1.27-8.91a.63.63,0,0,0-.63-.63.62.62,0,0,0-.37.13l-9.29,5.35a1.6,1.6,0,0,0-.73,1.51l1.27,8.9a.63.63,0,0,0,.63.63.67.67,0,0,0,.38-.13l9.24-5.34A1.57,1.57,0,0,0,119.08,122.58Z"/><path class="cls-11" d="M133.37,114.33l-1.27-8.93a.63.63,0,0,0-.63-.63.65.65,0,0,0-.38.13l-9.25,5.34a1.62,1.62,0,0,0-.73,1.51l1.28,8.9a.63.63,0,0,0,.63.63.64.64,0,0,0,.37-.13l9.27-5.32A1.6,1.6,0,0,0,133.37,114.33Z"/><path class="cls-11" d="M147.67,106.08l-1.27-8.9a.63.63,0,0,0-.63-.63.64.64,0,0,0-.38.12L136.15,102a1.59,1.59,0,0,0-.73,1.51l1.26,8.92a.64.64,0,0,0,1,.51l9.25-5.35A1.58,1.58,0,0,0,147.67,106.08Z"/><path class="cls-11" d="M162,97.86,160.7,89a.63.63,0,0,0-.63-.63.62.62,0,0,0-.37.13l-9.25,5.34a1.6,1.6,0,0,0-.73,1.51l1.27,8.91a.63.63,0,0,0,.64.62.65.65,0,0,0,.36-.12l9.25-5.34A1.6,1.6,0,0,0,162,97.86Z"/><path class="cls-3" d="M73.68,129.89,72.41,121a.64.64,0,0,0-.65-.62.6.6,0,0,0-.36.12l-9.25,5.34a1.6,1.6,0,0,0-.73,1.51l1.27,8.9a.64.64,0,0,0,.64.63.71.71,0,0,0,.37-.12l9.24-5.34A1.63,1.63,0,0,0,73.68,129.89Z"/><path class="cls-11" d="M88,121.64l-1.27-8.91a.64.64,0,0,0-.65-.62.6.6,0,0,0-.36.12l-9.25,5.34a1.6,1.6,0,0,0-.72,1.51L77,128a.64.64,0,0,0,.65.62.6.6,0,0,0,.36-.12l9.25-5.34A1.62,1.62,0,0,0,88,121.64Z"/><path class="cls-11" d="M102.28,113.39l-1.27-8.9a.64.64,0,0,0-.64-.63.81.81,0,0,0-.37.12l-9.24,5.34a1.6,1.6,0,0,0-.73,1.51l1.26,8.91a.64.64,0,0,0,.65.62.6.6,0,0,0,.36-.12l9.25-5.34A1.62,1.62,0,0,0,102.28,113.39Z"/><path class="cls-11" d="M116.57,105.15l-1.27-8.91a.64.64,0,0,0-.65-.62.6.6,0,0,0-.36.12l-9.24,5.35a1.62,1.62,0,0,0-.73,1.51l1.27,8.9a.64.64,0,0,0,.64.63.72.72,0,0,0,.37-.13l9.24-5.34A1.6,1.6,0,0,0,116.57,105.15Z"/><path class="cls-11" d="M130.89,96.9,129.61,88a.63.63,0,0,0-1-.51l-9.26,5.34a1.62,1.62,0,0,0-.72,1.51l1.26,8.9a.65.65,0,0,0,.65.63.67.67,0,0,0,.36-.12l9.25-5.35A1.64,1.64,0,0,0,130.89,96.9Z"/><path class="cls-11" d="M145.19,88.65l-1.27-8.89a.64.64,0,0,0-1-.51l-9.24,5.35a1.6,1.6,0,0,0-.73,1.51L134.2,95a.64.64,0,0,0,.65.62.58.58,0,0,0,.36-.12l9.25-5.34A1.62,1.62,0,0,0,145.19,88.65Z"/><path class="cls-11" d="M159.49,80.41l-1.27-8.91a.63.63,0,0,0-.63-.63.65.65,0,0,0-.38.13L148,76.34a1.6,1.6,0,0,0-.73,1.51l1.27,8.9a.64.64,0,0,0,.65.62.6.6,0,0,0,.36-.12l9.25-5.33A1.65,1.65,0,0,0,159.49,80.41Z"/><path class="cls-3" d="M71.19,112.44l-1.27-8.9a.64.64,0,0,0-.64-.63.65.65,0,0,0-.36.12l-9.26,5.39a1.6,1.6,0,0,0-.73,1.51l1.27,8.9a.63.63,0,0,0,.63.63.65.65,0,0,0,.38-.13L70.46,114A1.6,1.6,0,0,0,71.19,112.44Z"/><path class="cls-11" d="M85.49,104.22l-1.27-8.91a.62.62,0,0,0-.64-.62.58.58,0,0,0-.36.12L74,100.15a1.6,1.6,0,0,0-.73,1.51l1.27,8.9a.65.65,0,0,0,.65.63.69.69,0,0,0,.36-.13l9.25-5.34A1.6,1.6,0,0,0,85.49,104.22Z"/><path class="cls-11" d="M99.79,96l-1.26-8.91a.64.64,0,0,0-.65-.62.6.6,0,0,0-.36.12L88.27,91.9a1.65,1.65,0,0,0-.73,1.51l1.28,8.9a.64.64,0,0,0,.64.63.65.65,0,0,0,.36-.12l9.25-5.34A1.6,1.6,0,0,0,99.79,96Z"/><path class="cls-11" d="M114.09,87.72l-1.26-8.9a.65.65,0,0,0-.65-.63.67.67,0,0,0-.36.12l-9.25,5.34a1.65,1.65,0,0,0-.73,1.51l1.28,8.91a.62.62,0,0,0,.64.62.58.58,0,0,0,.36-.12l9.25-5.34A1.58,1.58,0,0,0,114.09,87.72Z"/><path class="cls-11" d="M128.4,79.47l-1.27-8.9a.64.64,0,0,0-.64-.63.72.72,0,0,0-.37.13l-9.24,5.34a1.58,1.58,0,0,0-.73,1.5l1.27,8.91a.62.62,0,0,0,.64.62.58.58,0,0,0,.36-.12L127.67,81A1.6,1.6,0,0,0,128.4,79.47Z"/><path class="cls-11" d="M142.72,71.21l-1.27-8.91a.62.62,0,0,0-.64-.62.58.58,0,0,0-.36.12l-9.3,5.38a1.65,1.65,0,0,0-.73,1.51l1.28,8.91a.62.62,0,0,0,.64.62.58.58,0,0,0,.36-.12L142,72.72A1.59,1.59,0,0,0,142.72,71.21Z"/><path class="cls-11" d="M157,63l-1.27-8.9a.64.64,0,0,0-.64-.63.66.66,0,0,0-.36.13l-9.25,5.33a1.6,1.6,0,0,0-.73,1.51L146,69.33a.64.64,0,0,0,.65.62.6.6,0,0,0,.36-.12l9.27-5.35A1.62,1.62,0,0,0,157,63Z"/><path class="cls-3" d="M68.71,95l-1.28-8.9a.63.63,0,0,0-.63-.63.64.64,0,0,0-.37.13L57.18,91a1.6,1.6,0,0,0-.73,1.51l1.28,8.91a.63.63,0,0,0,.63.63.65.65,0,0,0,.38-.13L68,96.54A1.62,1.62,0,0,0,68.71,95Z"/><path class="cls-11" d="M83,86.8l-1.28-8.91a.62.62,0,0,0-.62-.62.64.64,0,0,0-.38.12l-9.25,5.34a1.6,1.6,0,0,0-.73,1.51L72,93.14a.63.63,0,0,0,.63.63.58.58,0,0,0,.38-.13l9.25-5.34A1.58,1.58,0,0,0,83,86.8Z"/><path class="cls-11" d="M97.31,78.54,96,69.64a.63.63,0,0,0-.63-.63.64.64,0,0,0-.38.12l-9.25,5.35a1.58,1.58,0,0,0-.73,1.5l1.28,8.9a.63.63,0,0,0,.62.63.64.64,0,0,0,.38-.12l9.25-5.34A1.6,1.6,0,0,0,97.31,78.54Z"/><path class="cls-11" d="M111.61,70.3l-1.27-8.91a.63.63,0,0,0-.63-.63.65.65,0,0,0-.38.13l-9.25,5.34a1.59,1.59,0,0,0-.72,1.51l1.26,8.9a.65.65,0,0,0,.65.63.77.77,0,0,0,.36-.12l9.25-5.34A1.6,1.6,0,0,0,111.61,70.3Z"/><path class="cls-11" d="M125.91,62.05l-1.27-8.91a.63.63,0,0,0-.63-.63.67.67,0,0,0-.38.13L114.39,58a1.6,1.6,0,0,0-.73,1.51l1.26,8.91a.64.64,0,0,0,.65.62.67.67,0,0,0,.36-.12l9.25-5.34A1.6,1.6,0,0,0,125.91,62.05Z"/><path class="cls-11" d="M140.2,53.8l-1.27-8.9a.63.63,0,0,0-.63-.63.61.61,0,0,0-.37.12l-9.25,5.34a1.6,1.6,0,0,0-.73,1.51l1.27,8.9a.64.64,0,0,0,.64.63.77.77,0,0,0,.37-.12l9.24-5.34A1.6,1.6,0,0,0,140.2,53.8Z"/><path class="cls-11" d="M154.52,45.56l-1.28-8.91a.62.62,0,0,0-.62-.62.64.64,0,0,0-.38.12L143,41.49a1.6,1.6,0,0,0-.73,1.51l1.27,8.91a.62.62,0,0,0,.64.62.58.58,0,0,0,.36-.12l9.25-5.34A1.61,1.61,0,0,0,154.52,45.56Z"/><path class="cls-7" d="M66.51,79.29,66.19,77a.63.63,0,0,0-.63-.63.65.65,0,0,0-.38.13l-9.25,5.35a1.6,1.6,0,0,0-.73,1.51l.31,2.27a.64.64,0,0,0,.65.62.6.6,0,0,0,.36-.12l9.26-5.36A1.62,1.62,0,0,0,66.51,79.29Z"/><path class="cls-7" d="M80.81,71.05l-.32-2.28a.63.63,0,0,0-.63-.63.65.65,0,0,0-.38.13l-9.25,5.35a1.6,1.6,0,0,0-.73,1.51l.32,2.27a.64.64,0,0,0,.64.63.66.66,0,0,0,.36-.13l9.26-5.34A1.6,1.6,0,0,0,80.81,71.05Z"/><path class="cls-7" d="M95.11,62.8l-.32-2.27a.64.64,0,0,0-.64-.63.71.71,0,0,0-.37.12l-9.25,5.35a1.6,1.6,0,0,0-.73,1.51l.32,2.27a.63.63,0,0,0,.63.63.61.61,0,0,0,.37-.12l9.26-5.34A1.62,1.62,0,0,0,95.11,62.8Z"/><path class="cls-7" d="M109.41,54.56l-.32-2.28a.64.64,0,0,0-.64-.63.66.66,0,0,0-.36.13l-9.26,5.35a1.58,1.58,0,0,0-.73,1.5l.32,2.28a.63.63,0,0,0,.63.63.67.67,0,0,0,.38-.13l9.25-5.33A1.62,1.62,0,0,0,109.41,54.56Z"/><path class="cls-7" d="M123.71,46.31,123.39,44a.62.62,0,0,0-.64-.62.58.58,0,0,0-.36.12l-9.26,5.35a1.61,1.61,0,0,0-.72,1.51l.31,2.27a.63.63,0,0,0,.63.63.58.58,0,0,0,.38-.13L123,47.83A1.62,1.62,0,0,0,123.71,46.31Z"/><path class="cls-7" d="M138,38.06l-.33-2.27a.63.63,0,0,0-.62-.63.58.58,0,0,0-.38.13l-9.25,5.34a1.6,1.6,0,0,0-.73,1.51l.31,2.28a.64.64,0,0,0,.65.62.6.6,0,0,0,.36-.12l9.25-5.34A1.62,1.62,0,0,0,138,38.06Z"/><path class="cls-7" d="M152.31,29.81,152,27.54a.63.63,0,0,0-.63-.63A.65.65,0,0,0,151,27l-9.25,5.34a1.6,1.6,0,0,0-.73,1.51l.32,2.27a.64.64,0,0,0,1,.5l9.25-5.34A1.61,1.61,0,0,0,152.31,29.81Z"/><path class="cls-9" d="M55.72,65.87a3.64,3.64,0,0,1,1.73-3.36c1.13-.65,2.18-.2,2.35,1a3.62,3.62,0,0,1-1.73,3.36A1.44,1.44,0,0,1,55.72,65.87Z"/><path class="cls-9" d="M70,57.63a3.62,3.62,0,0,1,1.73-3.36,1.43,1.43,0,0,1,2.35,1,3.62,3.62,0,0,1-1.73,3.35C71.26,59.26,70.21,58.81,70,57.63Z"/><path class="cls-9" d="M84.32,49.36A3.66,3.66,0,0,1,86.05,46c1.13-.66,2.19-.21,2.36,1a3.64,3.64,0,0,1-1.73,3.36A1.44,1.44,0,0,1,84.32,49.36Z"/><path class="cls-9" d="M112.92,32.85a3.62,3.62,0,0,1,1.73-3.36,1.44,1.44,0,0,1,2.35,1,3.61,3.61,0,0,1-1.73,3.36C114.14,34.5,113.09,34.05,112.92,32.85Z"/><path class="cls-9" d="M127.23,24.59A3.62,3.62,0,0,1,129,21.23c1.13-.65,2.18-.21,2.35,1a3.63,3.63,0,0,1-1.73,3.36C128.45,26.24,127.4,25.79,127.23,24.59Z"/><path class="cls-9" d="M141.52,16.34A3.62,3.62,0,0,1,143.25,13a1.43,1.43,0,0,1,2.35,1,3.64,3.64,0,0,1-1.73,3.36C142.72,18,141.71,17.54,141.52,16.34Z"/><path class="cls-12" d="M54.24,52.28a4.06,4.06,0,0,0-4.11-.36,4.05,4.05,0,0,0-1.75,3.74,9.12,9.12,0,0,0,.36,2.44l.9-.5a8.38,8.38,0,0,1-.26-1.93,3.12,3.12,0,0,1,1.25-2.87,2.14,2.14,0,0,1,1.08-.27,4.07,4.07,0,0,1,2,.63,10.75,10.75,0,0,1,4.86,8.41,4.87,4.87,0,0,1,0,.66,2.77,2.77,0,0,1-1.2,2.21,2.34,2.34,0,0,1-1.51.24,2.63,2.63,0,0,0-.13,1,5.46,5.46,0,0,0,.57,0,3.13,3.13,0,0,0,1.58-.41,3.55,3.55,0,0,0,1.64-2.59,6.38,6.38,0,0,0,.1-1.15A11.8,11.8,0,0,0,54.24,52.28Z"/><path class="cls-12" d="M68.55,44a3.6,3.6,0,0,0-5.86,3.39,9.1,9.1,0,0,0,.36,2.43l.9-.5a7.78,7.78,0,0,1-.25-1.92,3.15,3.15,0,0,1,1.24-2.88A2.28,2.28,0,0,1,66,44.27a4.24,4.24,0,0,1,2,.63,10.77,10.77,0,0,1,4.85,8.41,4.87,4.87,0,0,1,0,.66,2.75,2.75,0,0,1-1.2,2.21,2.33,2.33,0,0,1-1.51.24,2.9,2.9,0,0,0-.13,1,3.64,3.64,0,0,0,.57,0,3,3,0,0,0,1.58-.41,3.55,3.55,0,0,0,1.64-2.58,5.68,5.68,0,0,0,.1-1.16A11.82,11.82,0,0,0,68.55,44Z"/><path class="cls-12" d="M82.84,35.77A3.6,3.6,0,0,0,77,39.15a9.12,9.12,0,0,0,.36,2.44l.89-.5A8.37,8.37,0,0,1,78,39.16a3.13,3.13,0,0,1,1.25-2.87A2.14,2.14,0,0,1,80.31,36a4.1,4.1,0,0,1,2,.63,10.75,10.75,0,0,1,4.86,8.41,4.87,4.87,0,0,1,0,.66,2.75,2.75,0,0,1-1.21,2.21,2.3,2.3,0,0,1-1.5.24,2.65,2.65,0,0,0-.13,1,3.64,3.64,0,0,0,.57,0,3,3,0,0,0,1.58-.41,3.55,3.55,0,0,0,1.64-2.59,6.38,6.38,0,0,0,.1-1.15A11.83,11.83,0,0,0,82.84,35.77Z"/><path class="cls-12" d="M111.44,19.28a4.05,4.05,0,0,0-4.11-.35,4,4,0,0,0-1.75,3.74,9.17,9.17,0,0,0,.36,2.44l.89-.5a8.37,8.37,0,0,1-.25-1.93,3.1,3.1,0,0,1,1.25-2.87,2,2,0,0,1,1.08-.27,4.19,4.19,0,0,1,2,.62,10.76,10.76,0,0,1,4.85,8.41,4.86,4.86,0,0,1,0,.66,2.76,2.76,0,0,1-1.21,2.21,2.33,2.33,0,0,1-1.51.25,2.81,2.81,0,0,0-.12,1,3.66,3.66,0,0,0,.57.05,3.14,3.14,0,0,0,1.58-.42,3.58,3.58,0,0,0,1.64-2.58,6.41,6.41,0,0,0,.1-1.16A11.85,11.85,0,0,0,111.44,19.28Z"/><path class="cls-12" d="M125.75,11a4.05,4.05,0,0,0-4.11-.35,4,4,0,0,0-1.75,3.74,9.23,9.23,0,0,0,.36,2.44l.9-.51a7.79,7.79,0,0,1-.26-1.92,3.12,3.12,0,0,1,1.25-2.87,2.15,2.15,0,0,1,1.08-.28,4.17,4.17,0,0,1,2,.63,10.75,10.75,0,0,1,4.86,8.41,4.87,4.87,0,0,1,0,.66,2.74,2.74,0,0,1-1.21,2.21,2.24,2.24,0,0,1-1.5.24,2.68,2.68,0,0,0-.13,1,3.64,3.64,0,0,0,.57,0,3,3,0,0,0,1.58-.41A3.55,3.55,0,0,0,131,21.48a6.41,6.41,0,0,0,.1-1.16A11.87,11.87,0,0,0,125.75,11Z"/><path class="cls-12" d="M140,2.77a4.07,4.07,0,0,0-4.12-.36,4.08,4.08,0,0,0-1.75,3.74,9.12,9.12,0,0,0,.36,2.44l.9-.5a7.86,7.86,0,0,1-.25-1.93,3.14,3.14,0,0,1,1.24-2.87A2.28,2.28,0,0,1,137.5,3a4.24,4.24,0,0,1,2,.63,10.77,10.77,0,0,1,4.85,8.41,4.87,4.87,0,0,1,0,.66,2.75,2.75,0,0,1-1.2,2.21,2.34,2.34,0,0,1-1.51.24,2.9,2.9,0,0,0-.13,1,3.64,3.64,0,0,0,.57,0,3,3,0,0,0,1.58-.41,3.55,3.55,0,0,0,1.64-2.59,6.3,6.3,0,0,0,.1-1.15A11.82,11.82,0,0,0,140,2.77Z"/></g></g><g id="freepik--Device--inject-32"><g id="freepik--Clock--inject-32"><path class="cls-13" d="M154.9,133.56l-3.38,5.87a1.62,1.62,0,1,0,2.76,1.68l3.4-5.91a1.43,1.43,0,0,0-.79-1.82A1.48,1.48,0,0,0,154.9,133.56Z"/><path class="cls-13" d="M181.79,123.23l5.87,3.38a1.6,1.6,0,0,0,1.68-2.72l0,0-5.9-3.37a1.43,1.43,0,0,0-1.83.79A1.41,1.41,0,0,0,181.79,123.23Z"/><path class="cls-3" d="M188.29,96.77h0L174,88.52h0c-3.14-1.78-7.47-1.51-12.24,1.24-9.59,5.53-17.36,19-17.36,30.07,0,5.54,1.93,9.4,5.06,11.22h0l14.3,8.26h0c3.14,1.8,7.47,1.51,12.25-1.23,9.58-5.53,17.36-19,17.36-30.07C193.35,102.48,191.42,98.59,188.29,96.77Z"/><path class="cls-4" d="M163.48,139.15,149.4,131h0c-3.13-1.83-5.06-5.71-5.06-11.22a34.45,34.45,0,0,1,4.11-15.32l14.3,8.25a34.32,34.32,0,0,0-4.11,15.32C158.62,133.44,160.47,137.27,163.48,139.15Z"/><ellipse class="cls-10" cx="175.99" cy="118.02" rx="24.56" ry="14.18" transform="translate(-14.21 211.42) rotate(-60)"/><path class="cls-8" d="M168.23,136.92c-5.49,0-6.09-6.21-6.09-8.88,0-9.76,7.15-22.12,15.59-27a12.51,12.51,0,0,1,6-1.9c5.49,0,6.08,6.21,6.08,8.88,0,9.76-7.14,22.12-15.59,27a12.48,12.48,0,0,1-6,1.9Z"/><path class="cls-3" d="M172.14,129.33h-.08a.26.26,0,0,1-.16-.32l3.85-11a.24.24,0,0,1,.32-.15.26.26,0,0,1,.16.32l-3.84,11A.25.25,0,0,1,172.14,129.33Z"/><path class="cls-14" d="M181.75,121.34a.72.72,0,0,1-.29-.06l-6.23-2.69V107.3a.76.76,0,0,1,.76-.75.75.75,0,0,1,.75.75v10.3l5.31,2.3a.76.76,0,0,1,.39,1A.77.77,0,0,1,181.75,121.34Z"/><path class="cls-3" d="M176,115.66c1.13-.65,2-.12,2,1.18a4.52,4.52,0,0,1-2,3.52c-1.13.65-2.05.12-2.05-1.18A4.54,4.54,0,0,1,176,115.66Z"/><path class="cls-13" d="M159.37,107.56c-2.46,4.26-7.1,6.19-10.59,4.18A8.92,8.92,0,0,1,157.7,96.3h0C161.18,98.36,161.83,103.3,159.37,107.56Z"/><path class="cls-14" d="M148.78,111.74c3.49,2,8.13.08,10.59-4.18a11.52,11.52,0,0,0,1.22-3c-.15.18-4.25,5.41-9.35,3.94s-6.16-5.5-5.72-8.9a8.92,8.92,0,0,0,3.26,12.19Z"/><path class="cls-3" d="M147.34,98.69l-2.64-1.51A1.6,1.6,0,1,0,143,99.9l0,0,2.68,1.54a1.44,1.44,0,0,0,1.83-.78A1.47,1.47,0,0,0,147.34,98.69Z"/><path class="cls-3" d="M186.8,85.93l1.51-2.64a1.6,1.6,0,0,0-2.72-1.68l0,0L184,84.33a1.42,1.42,0,0,0,.79,1.82A1.46,1.46,0,0,0,186.8,85.93Z"/><path class="cls-13" d="M174,87A8.93,8.93,0,0,1,189.49,96h0Z"/><path class="cls-14" d="M187.52,84.7c.51,1,1.88,5.51,0,6.61S177,88.75,177,88.75L189.49,96A8.94,8.94,0,0,0,187.52,84.7Z"/></g></g><g id="freepik--Character--inject-32"><g id="freepik--character--inject-32-2" data-name="freepik--character--inject-32"><path class="cls-15" d="M131.09,110.18c-8.9-12-11.83-13.29-13.51-13.7l2.94,8,6.11,7.83"/><path class="cls-3" d="M116.71,96.35s1.9-.57,4.63,2.11,6,6.59,6,6.59-.89,3.19-3.68,4.18l-4-4.18Z"/><path class="cls-4" d="M116.71,96.35s1.9-.57,4.63,2.11,6,6.59,6,6.59-.89,3.19-3.68,4.18l-4-4.18Z"/><circle class="cls-16" cx="117.27" cy="84.76" r="5.11"/><rect class="cls-15" x="105.04" y="171.21" width="3.6" height="6.16"/><polygon class="cls-15" points="116.78 172.9 120.38 173.02 120.56 166.5 116.96 166.38 116.78 172.9"/><path class="cls-14" d="M105.27,122.37v24.9a41,41,0,0,0-1,6.91c-.24,5.16.55,19.37.55,19.37a3.09,3.09,0,0,0,4.06,0s3.2-20.28,3.85-25.4c.56-4.46,1.51-16.59,1.51-16.59l2.15,18.27s-.59,3.35-.72,5.71,1,15,1,15a3.92,3.92,0,0,0,3.92.15s2.46-18.93,2.83-21.07-1.35-27.26-1.35-27.26Z"/><path class="cls-3" d="M108.73,97.5a8.38,8.38,0,0,0-1.48.35c-1,.39-1.44,1.6-1.68,2.67a12.64,12.64,0,0,0-.3,2.74v19.11c2.52,2.74,11.33,4,16.84,0,0,0-.1-16.88-.5-19.65-.72-4.82-3-6.54-5.34-6.36l-5.56.8Z"/><path class="cls-16" d="M108.44,88.38a44.75,44.75,0,0,0,1.16,4.53,1.81,1.81,0,0,0,1,.83L110.55,91Z"/><path class="cls-16" d="M109.48,82.81a1.93,1.93,0,0,0-1.59.56c-.67.7-.29,2.88.55,5l1.57.18Z"/><path class="cls-15" d="M110.47,88.56c-.31.19-.76-.41-1.14-.81a1.36,1.36,0,0,0-2.28.36,2.88,2.88,0,0,0,1.55,3.45c1.71.53,2-.57,2-.57l.14,6.17a5.49,5.49,0,0,0,4.14,3.15c3,.41,2.41-2.09,1.41-3.32V95.12a11.16,11.16,0,0,0,2.31.12A3.14,3.14,0,0,0,121,92.69c.62-2.18.85-3.94.33-8.24-.57-4.71-6-4.76-9-2.9S110.47,88.56,110.47,88.56Z"/><path class="cls-16" d="M110.47,89.09c-.16,0-.76-1-1.14-1.34-.54-.51.15-4.94.15-4.94a2.12,2.12,0,0,1,.51-2.25c.73-.81,2-.9,4.07-1.23,1.11-.18,2.79-.5,3.9-.69,1.31-.25,2.41-.5,3.34.3a2.32,2.32,0,0,1,.64,2.62,2,2,0,0,1-.37.56c-.27.3-.31.7-.69.82a5.27,5.27,0,0,1-2.8,1,29.17,29.17,0,0,1-5.53-.11c-.59-.08-.74.11-1.06,1.64C111.23,86.8,111,89.08,110.47,89.09Z"/><path class="cls-16" d="M109.49,83.15l-1.89-1a1,1,0,0,1,1.38-.5l0,0A1.12,1.12,0,0,1,109.49,83.15Z"/><path class="cls-17" d="M116.25,95.12A20.82,20.82,0,0,1,112.47,94a3.2,3.2,0,0,1-1.36-1.34,4.39,4.39,0,0,0,.77,1.58c.72.92,4.37,1.6,4.37,1.6Z"/><path class="cls-16" d="M115.75,88.37a.56.56,0,1,1-.56-.58.56.56,0,0,1,.56.58Z"/><path class="cls-16" d="M115.16,86.26l-1.21.66a.73.73,0,0,1,.29-1,.67.67,0,0,1,.9.27Z"/><path class="cls-17" d="M116,91.74l1.28.51a.67.67,0,0,1-.84.43h0a.71.71,0,0,1-.42-.91Z"/><path class="cls-16" d="M120.76,86.73l-1.09-.85a.66.66,0,0,1,.92-.17l0,0A.72.72,0,0,1,120.76,86.73Z"/><path class="cls-16" d="M120.43,88.22a.58.58,0,0,1-.56.58h0a.59.59,0,0,1,0-1.17.6.6,0,0,1,.61.56Z"/><polygon class="cls-17" points="117.38 87.17 117.57 90.55 119.33 89.95 117.38 87.17"/><path class="cls-16" d="M108.64,175.6v-.5c.35.14,1.15,3.2,2.57,4.52,1.14,1,2.69,2.23,3.08,3.39s-2.16,1.86-3.22,1.67c-1.23-.22-3.37-1.09-3.9-1.89s-.79-2-1.23-2.58-1.44-1.25-1.67-1.93a4.48,4.48,0,0,1,.2-1.89c.17-.64.35-1.33.57-1.27v.39a2.92,2.92,0,0,0,1.8.61C107.37,176.11,108.64,176,108.64,175.6Z"/><path class="cls-16" d="M120.41,171.91c.19,0,.34.27.76.72a7.69,7.69,0,0,0,2.11,1.51c1.35.68,4,1.72,5.16,2.25.74.34.7,1.23-.06,1.74a7,7,0,0,1-4.84.38c-1.21-.27-2.78-1.39-3.78-1.33s-2.86,0-3.59-.46-.45-1.59-.24-2.51.55-2.57.89-2.52V172c.44.66,2.64.92,3.59.45Z"/><path class="cls-16" d="M114.24,131.55a13.13,13.13,0,0,0,5-2.87,10.33,10.33,0,0,1-3.84,3.5l.06,9.81Z"/><path class="cls-15" d="M107.41,131.4a21.93,21.93,0,0,0-1.86-1.81A4.74,4.74,0,0,1,104,128c-.51-.85-1-3.66-1.16-6.34a26.38,26.38,0,0,1,1.24-8.82c1.22-3.37,3.7-7.9,4.53-9.81a3.27,3.27,0,0,0-.36-3.84c-.86-1.13-2.47-1.14-4,1.45A55.18,55.18,0,0,0,99.44,112a27.85,27.85,0,0,0-.87,9.09,32.92,32.92,0,0,0,1.58,7.71c.22.74.2,1.34.45,2.81a6,6,0,0,0,.46,1.77,8.31,8.31,0,0,0,1.29,1.87,5.46,5.46,0,0,0,2.41,1.51,3.33,3.33,0,0,0,1.57.08,2.23,2.23,0,0,0,1.33-.78.61.61,0,0,0,.14-.29.71.71,0,0,0-.21-.5c-.71-.84-1.38-1.71-2-2.62-.46-.78-.68-1.39-.5-1.36s.42.5,1.09.93,1.51.4,1.7,0S108,131.91,107.41,131.4Z"/><path class="cls-3" d="M107.66,97.73c-1.44.09-2.75.41-4.19,3.26s-3.69,8.19-3.69,8.19a6.2,6.2,0,0,0,5.49,3.18s3.31-6.91,3.85-8.73S110,98.86,107.66,97.73Z"/><path class="cls-4" d="M107.66,97.73c-1.44.09-2.75.41-4.19,3.26s-3.69,8.19-3.69,8.19a6.2,6.2,0,0,0,5.49,3.18s3.31-6.91,3.85-8.73S110,98.86,107.66,97.73Z"/><path class="cls-15" d="M126.63,112.36c-.33,1-3.47,3.86-5.78,4.79a3.16,3.16,0,0,1-1.7.1,4.17,4.17,0,0,0-1.71-.33c-.67.06-1.35.19-2,.27a1,1,0,0,0-.41.1c-.41.23-.18.57.15.7a13,13,0,0,0,1.62.46v.14a16.24,16.24,0,0,1-4.36.88,1.22,1.22,0,0,0-.73.25.79.79,0,0,0-.17.71,2,2,0,0,0,.36.67,4.18,4.18,0,0,0,2.62,1.79,8.19,8.19,0,0,0,3.22-.41c.49-.14,1-.29,1.47-.46a34.33,34.33,0,0,0,4.15-1.86,37,37,0,0,0,7.92-5.57c1.45-1.41,1.09-2.77-.13-4.41"/><path class="cls-14" d="M120.52,117.24s.5-.19,1.07.73.94,2.6.22,2.94a1.47,1.47,0,0,0,1.27-.63,3.58,3.58,0,0,0-1.27-3.58A1.87,1.87,0,0,0,120.52,117.24Z"/><path class="cls-3" d="M123.18,117.58a1.07,1.07,0,1,1-1.46-.38h0A1.07,1.07,0,0,1,123.18,117.58Z"/><path class="cls-8" d="M122.93,117.72a.78.78,0,0,1-.28,1.07.79.79,0,1,1-.79-1.36h0a.78.78,0,0,1,1.07.29Z"/></g></g></g></g></svg>