<svg xmlns="http://www.w3.org/2000/svg" xmlns:xlink="http://www.w3.org/1999/xlink" width="19.994" height="19.994" viewBox="0 0 19.994 19.994"> <defs> <clipPath id="clip-path"> <path id="Clip_4" data-name="Clip 4" d="M0,0H19.994V5.713H0Z" transform="translate(0 0.006)" fill="none"/> </clipPath> <clipPath id="clip-path-2"> <path id="Clip_7" data-name="Clip 7" d="M0,0H19.994V5.713H0Z" transform="translate(0 0.02)" fill="none"/> </clipPath> </defs> <g id="Page_1" data-name="Page 1" transform="translate(0 -0.042)"> <path id="Fill_1" data-name="Fill 1" d="M5,5.713H5A2.84,2.84,0,0,1,2.244,3.57H.714a.714.714,0,0,1,0-1.428h1.53a2.843,2.843,0,0,1,5.51,0H19.281a.714.714,0,0,1,0,1.428H7.753A2.846,2.846,0,0,1,5,5.713ZM5,1.428A1.428,1.428,0,1,0,6.427,2.857,1.43,1.43,0,0,0,5,1.428Z" transform="translate(0 7.183)" fill="#fff"/> <g id="Group_5" data-name="Group 5" transform="translate(0 0.036)"> <path id="Clip_4-2" data-name="Clip 4" d="M0,0H19.994V5.713H0Z" transform="translate(0 0.006)" fill="none"/> <g id="Group_5-2" data-name="Group 5" clip-path="url(#clip-path)"> <path id="Fill_3" data-name="Fill 3" d="M14.28,5.713h0A2.841,2.841,0,0,1,11.526,3.57H.714a.714.714,0,0,1,0-1.428H11.526a2.843,2.843,0,0,1,5.511,0h2.244a.714.714,0,0,1,0,1.428H17.037A2.846,2.846,0,0,1,14.28,5.713Zm0-4.284A1.428,1.428,0,1,0,15.71,2.857,1.43,1.43,0,0,0,14.282,1.428Z" transform="translate(0 0.006)" fill="#fff"/> </g> </g> <g id="Group_8" data-name="Group 8" transform="translate(0 14.304)"> <path id="Clip_7-2" data-name="Clip 7" d="M0,0H19.994V5.713H0Z" transform="translate(0 0.02)" fill="none"/> <g id="Group_8-2" data-name="Group 8" clip-path="url(#clip-path-2)"> <path id="Fill_6" data-name="Fill 6" d="M12.852,5.713h0A2.839,2.839,0,0,1,10.1,3.57H.714a.714.714,0,0,1,0-1.428H10.1a2.843,2.843,0,0,1,5.51,0h3.672a.714.714,0,0,1,0,1.428H15.609a2.846,2.846,0,0,1-2.757,2.142Zm0-4.284a1.428,1.428,0,1,0,1.428,1.428A1.43,1.43,0,0,0,12.854,1.428Z" transform="translate(0 0.02)" fill="#fff"/> </g> </g> </g> </svg>