<?xml version="1.0" encoding="UTF-8"?>
<svg class="css-1j8o68f" viewBox="0 0 297.55 93.506" xmlns="http://www.w3.org/2000/svg">
  <g transform="matrix(3.9382 0 0 3.9382 -.96136 -11.344)" fill="#444f5a" featurekey="nN0dxP-0">
    <path
      d="m3.5645 17.441c0.13021-0.16276 0.30271-0.34016 0.51755-0.53222s0.46224-0.37109 0.74219-0.53711 0.5957-0.30599 0.94727-0.41992 0.73567-0.1709 1.1523-0.1709c0.42317 0 0.78125 0.022783 1.0742 0.068359s0.55989 0.092773 0.80078 0.1416 0.46875 0.096025 0.68359 0.1416 0.45247 0.068359 0.71289 0.068359c0.49479 0 0.88217-0.10742 1.1621-0.32227s0.41992-0.61523 0.41992-1.2012h1.9238c0 1.2435-0.11719 2.2314-0.35156 2.9639s-0.55501 1.2891-0.96191 1.6699-0.8903 0.62337-1.4502 0.72754-1.1589 0.15625-1.7969 0.15625c-0.50781 0-0.99775-0.048828-1.4697-0.14648s-0.92447-0.20345-1.3574-0.31738-0.84635-0.22136-1.2402-0.32227-0.76334-0.15137-1.1084-0.15137c-0.29948 0-0.53549 0.040693-0.70802 0.12207s-0.31088 0.16764-0.41505 0.25878c-0.1237 0.11067-0.21811 0.23111-0.28321 0.36132h-2.2363c0-0.97656 0.10905-1.8213 0.32715-2.5342s0.50781-1.3347 0.86914-1.8652 0.77474-0.98633 1.2402-1.3672 0.93913-0.71452 1.4209-1.001 0.9554-0.54361 1.4209-0.77147 0.87891-0.46224 1.2402-0.70313 0.65104-0.50131 0.86914-0.78126 0.32715-0.61198 0.32715-0.99609c0-0.57292-0.22298-0.99932-0.66895-1.2793s-0.98145-0.41992-1.6064-0.41992c-0.44271 0-0.83984 0.032549-1.1914 0.097656s-0.68685 0.17904-1.0059 0.34181c0.39714 0.11719 0.74219 0.30599 1.0352 0.56641s0.43945 0.64453 0.43945 1.1523c0 0.22786-0.050459 0.44759-0.15137 0.65918s-0.24739 0.40527-0.43945 0.58105-0.43457 0.3125-0.72754 0.41016-0.625 0.14648-0.99609 0.14648c-0.27995 0-0.56804-0.045576-0.86426-0.13672s-0.56314-0.23763-0.80077-0.43945-0.43294-0.4655-0.58594-0.79102-0.22949-0.72266-0.22949-1.1914c0-0.625 0.16602-1.1979 0.49805-1.7188s0.79753-0.97168 1.3965-1.3525 1.3184-0.67383 2.1582-0.87891 1.761-0.30762 2.7637-0.30762c1.0677 0 2.0085 0.11394 2.8223 0.3418s1.4974 0.54199 2.0508 0.94238 0.97006 0.86589 1.25 1.3965 0.41992 1.0986 0.41992 1.7041c0 0.72917-0.11719 1.3379-0.35156 1.8262s-0.55176 0.89192-0.95215 1.2109-0.86101 0.58105-1.3818 0.78613-1.0677 0.38574-1.6406 0.54199-1.1523 0.31087-1.7383 0.46387-1.1426 0.34506-1.6699 0.57618-1.0075 0.51758-1.4404 0.85938-0.77637 0.77962-1.0303 1.3135zm19.316-1.0644c0.35808 0 0.70802-0.039063 1.0498-0.11719s0.64128-0.24089 0.89844-0.48828 0.46712-0.60384 0.62988-1.0693 0.24414-1.0921 0.24414-1.8799c0-0.77474-0.078125-1.3981-0.23438-1.8701s-0.3597-0.83496-0.61035-1.0889-0.55014-0.42155-0.89845-0.50293-0.70801-0.12207-1.0791-0.12207h-0.91797v7.1387h0.91797zm-8.2812 3.623 1.9073e-5 -3.623c0.57292 0 0.98311-0.076494 1.2305-0.22949s0.37109-0.44108 0.37109-0.86426v-4.9414c0-0.42969-0.1237-0.72103-0.37109-0.87402s-0.65755-0.22949-1.2305-0.22949v-3.623h10.361c0.93099 0 1.8327 0.1237 2.7051 0.37109s1.6487 0.65104 2.3291 1.2109 1.2272 1.3005 1.6406 2.2217 0.62012 2.0557 0.62012 3.4033-0.20345 2.4805-0.61035 3.3984-0.96029 1.6569-1.6602 2.2168-1.5186 0.96354-2.4561 1.2109-1.9336 0.37109-2.9883 0.37109zm18.564-5.4004c0-0.95703 0.16602-1.7969 0.49805-2.5195s0.80566-1.3265 1.4209-1.8115 1.3558-0.85124 2.2217-1.0986 1.8327-0.37109 2.9004-0.37109 2.0345 0.1237 2.9004 0.37109 1.6048 0.6136 2.2168 1.0986 1.0856 1.0889 1.4209 1.8115 0.50293 1.5625 0.50293 2.5195c0 0.94401-0.16765 1.7806-0.50293 2.5098s-0.80892 1.3396-1.4209 1.8311-1.3509 0.861-2.2168 1.1084-1.8327 0.37109-2.9004 0.37109-2.0345-0.1237-2.9004-0.37109-1.6064-0.61686-2.2217-1.1084-1.0889-1.1019-1.4209-1.8311-0.49805-1.5657-0.49805-2.5098zm5.5566 0c0 0.54688 0.024404 1.0107 0.073232 1.3916s0.12858 0.68685 0.23926 0.91797 0.26041 0.40039 0.44921 0.50781 0.42969 0.16113 0.72266 0.16113 0.53223-0.053711 0.71777-0.16113 0.33528-0.27669 0.44922-0.50781 0.19369-0.53711 0.23927-0.91797 0.068359-0.84473 0.068359-1.3916c0-1.0938-0.10254-1.8604-0.30762-2.2998s-0.59407-0.65918-1.167-0.65918c-0.29297 0-0.53386 0.050459-0.72266 0.15137s-0.33854 0.26692-0.44921 0.49805-0.19043 0.53711-0.23926 0.91797-0.073242 0.84473-0.073242 1.3916z"
      fill="#ffffff" />
  </g>
</svg>
