<svg xmlns="http://www.w3.org/2000/svg" x="0px" y="0px" width="30px" height="30px" viewBox="0 0 172 172" ><g fill="none" fill-rule="nonzero" stroke="none" stroke-width="1" stroke-linecap="butt" stroke-linejoin="miter" stroke-miterlimit="10" stroke-dasharray="" stroke-dashoffset="0" font-family="none" font-weight="none" font-size="none" text-anchor="none" style="mix-blend-mode: normal"><path d="M0,172v-172h172v172z" fill="none"></path><g fill="#ff1100"><path d="M72.24,6.88c-5.66037,0 -10.32,4.65964 -10.32,10.32v6.88h-34.4c-1.90232,0 -3.44,1.54112 -3.44,3.44c0,1.89888 1.53768,3.44 3.44,3.44h3.44v123.84c0,5.68976 4.63024,10.32 10.32,10.32h75.80765c5.74136,4.29656 12.83083,6.88 20.51235,6.88c18.92,0 34.4,-15.48 34.4,-34.4c0,-17.76072 -13.6396,-32.48467 -30.96,-34.22531v-72.41469h3.44c1.90232,0 3.44,-1.54112 3.44,-3.44c0,-1.89888 -1.53768,-3.44 -3.44,-3.44h-34.4v-6.88c0,-5.66036 -4.65963,-10.32 -10.32,-10.32zM72.24,13.76h27.52c1.90763,0 3.44,1.53236 3.44,3.44v6.88h-34.4v-6.88c0,-1.90764 1.53237,-3.44 3.44,-3.44zM65.36,48.16c1.90232,0 3.44,1.54112 3.44,3.44v86c0,1.89888 -1.53768,3.44 -3.44,3.44c-1.90232,0 -3.44,-1.54112 -3.44,-3.44v-86c0,-1.89888 1.53768,-3.44 3.44,-3.44zM86,48.16c1.90232,0 3.44,1.54112 3.44,3.44v86c0,1.89888 -1.53768,3.44 -3.44,3.44c-1.90232,0 -3.44,-1.54112 -3.44,-3.44v-86c0,-1.89888 1.53768,-3.44 3.44,-3.44zM106.64,48.16c1.90232,0 3.44,1.54112 3.44,3.44v65.42047c-3.60168,4.80912 -5.99404,10.57902 -6.67172,16.87078c-0.06192,0.09632 -0.14636,0.17243 -0.20828,0.26875v-82.56c0,-1.89888 1.53768,-3.44 3.44,-3.44zM137.6,110.08c15.136,0 27.52,12.384 27.52,27.52c0,15.136 -12.384,27.52 -27.52,27.52c-15.136,0 -27.52,-12.384 -27.52,-27.52c0,-15.136 12.384,-27.52 27.52,-27.52zM125.56,122.12c-0.86,0 -1.71731,0.34669 -2.40531,1.03469c-1.376,1.376 -1.376,3.43463 0,4.81063l9.62797,9.63469l-9.62797,9.63469c-1.376,1.376 -1.376,3.43463 0,4.81063c1.376,1.376 3.43463,1.376 4.81063,0l9.63469,-9.62797l9.63469,9.62797c1.376,1.376 3.43463,1.376 4.81063,0c0.688,-0.688 1.03469,-1.71731 1.03469,-2.40531c0,-0.688 -0.34669,-1.71731 -1.03469,-2.40531l-9.62797,-9.63469l9.62797,-9.63469c0.688,-0.688 1.03469,-1.71731 1.03469,-2.40531c0,-0.688 -0.34669,-1.71731 -1.03469,-2.40531c-1.376,-1.376 -3.43463,-1.376 -4.81063,0l-9.63469,9.62797l-9.63469,-9.62797c-0.688,-0.688 -1.54531,-1.03469 -2.40531,-1.03469z"></path></g></g></svg>